<svg version="1.1" xmlns="http://www.w3.org/2000/svg" xmlns:xlink="http://www.w3.org/1999/xlink" width="668" height="472"><defs/><g><g transform="translate(-190,-78) scale(1,1)"><rect fill="#C0C0C0" stroke="none" x="423" y="95" width="128" height="72" opacity="0.2"/></g><g transform="translate(-190,-78) scale(1,1)"><rect fill="#ffffff" stroke="none" x="416" y="88" width="128" height="72"/></g><g transform="translate(-190,-78) scale(1,1)"><path fill="none" stroke="#000000" d="M 416 88 L 544 88 L 544 160 L 416 160 L 416 88 Z Z" stroke-miterlimit="10"/></g><g transform="translate(-190,-78) scale(1,1)"><path fill="none" stroke="#000000" d="M 416 113 L 544 113" stroke-miterlimit="10"/></g><g transform="translate(-190,-78) scale(1,1)"><path fill="none" stroke="#000000" d="M 416 123 L 544 123" stroke-miterlimit="10"/></g><g transform="translate(-190,-78) scale(1,1)"><g><path fill="none" stroke="none"/><text fill="#000000" stroke="none" font-family="Arial" font-size="13px" font-style="normal" font-weight="bold" text-decoration="none" x="460.1318359375" y="107.5">Animal</text></g></g><g transform="translate(-190,-78) scale(1,1)"><rect fill="#C0C0C0" stroke="none" x="207" y="271" width="88" height="64" opacity="0.2"/></g><g transform="translate(-190,-78) scale(1,1)"><rect fill="#ffffff" stroke="none" x="200" y="264" width="88" height="64"/></g><g transform="translate(-190,-78) scale(1,1)"><path fill="none" stroke="#000000" d="M 200 264 L 288 264 L 288 328 L 200 328 L 200 264 Z Z" stroke-miterlimit="10"/></g><g transform="translate(-190,-78) scale(1,1)"><path fill="none" stroke="#000000" d="M 200 289 L 288 289" stroke-miterlimit="10"/></g><g transform="translate(-190,-78) scale(1,1)"><path fill="none" stroke="#000000" d="M 200 299 L 288 299" stroke-miterlimit="10"/></g><g transform="translate(-190,-78) scale(1,1)"><g><path fill="none" stroke="none"/><text fill="#000000" stroke="none" font-family="Arial" font-size="13px" font-style="normal" font-weight="bold" text-decoration="none" x="232.44091796875" y="283.5">Bird</text></g></g><g transform="translate(-190,-78) scale(1,1)"><path fill="none" stroke="#000000" d="M 289 263 L 429 161" stroke-miterlimit="10"/></g><g transform="translate(-190,-78) scale(1,1)"><path fill="#FFFFFF" stroke="none" d="M 417.529927132349 179.77331692617943 L 429 161 L 407.61469399071444 166.1641733984458"/></g><g transform="translate(-190,-78) scale(1,1)"><path fill="none" stroke="#000000" d="M 417.529927132349 179.77331692617943 L 429 161 L 407.61469399071444 166.1641733984458 L 417.529927132349 179.77331692617943" stroke-miterlimit="10"/></g><g transform="translate(-190,-78) scale(1,1)"><rect fill="#C0C0C0" stroke="none" x="479" y="268" width="96" height="67" opacity="0.2"/></g><g transform="translate(-190,-78) scale(1,1)"><rect fill="#ffffff" stroke="none" x="472" y="261" width="96" height="67"/></g><g transform="translate(-190,-78) scale(1,1)"><path fill="none" stroke="#000000" d="M 472 261 L 568 261 L 568 328 L 472 328 L 472 261 Z Z" stroke-miterlimit="10"/></g><g transform="translate(-190,-78) scale(1,1)"><path fill="none" stroke="#000000" d="M 472 286 L 568 286" stroke-miterlimit="10"/></g><g transform="translate(-190,-78) scale(1,1)"><path fill="none" stroke="#000000" d="M 472 296 L 568 296" stroke-miterlimit="10"/></g><g transform="translate(-190,-78) scale(1,1)"><g><path fill="none" stroke="none"/><text fill="#000000" stroke="none" font-family="Arial" font-size="13px" font-style="normal" font-weight="bold" text-decoration="none" x="495.082275390625" y="280.5">Mammal</text></g></g><g transform="translate(-190,-78) scale(1,1)"><path fill="none" stroke="#000000" d="M 512 260 L 489 161" stroke-miterlimit="10"/></g><g transform="translate(-190,-78) scale(1,1)"><path fill="#FFFFFF" stroke="none" d="M 501.80018676480535 178.8928817909833 L 489 161 L 485.3989208124746 182.70327691122176"/></g><g transform="translate(-190,-78) scale(1,1)"><path fill="none" stroke="#000000" d="M 501.80018676480535 178.8928817909833 L 489 161 L 485.3989208124746 182.70327691122176 L 501.80018676480535 178.8928817909833" stroke-miterlimit="10"/></g><g transform="translate(-190,-78) scale(1,1)"><rect fill="#C0C0C0" stroke="none" x="759" y="263" width="88" height="72" opacity="0.2"/></g><g transform="translate(-190,-78) scale(1,1)"><rect fill="#ffffff" stroke="none" x="752" y="256" width="88" height="72"/></g><g transform="translate(-190,-78) scale(1,1)"><path fill="none" stroke="#000000" d="M 752 256 L 840 256 L 840 328 L 752 328 L 752 256 Z Z" stroke-miterlimit="10"/></g><g transform="translate(-190,-78) scale(1,1)"><path fill="none" stroke="#000000" d="M 752 281 L 840 281" stroke-miterlimit="10"/></g><g transform="translate(-190,-78) scale(1,1)"><path fill="none" stroke="#000000" d="M 752 291 L 840 291" stroke-miterlimit="10"/></g><g transform="translate(-190,-78) scale(1,1)"><g><path fill="none" stroke="none"/><text fill="#000000" stroke="none" font-family="Arial" font-size="13px" font-style="normal" font-weight="bold" text-decoration="none" x="783.720458984375" y="275.5">Fish</text></g></g><g transform="translate(-190,-78) scale(1,1)"><path fill="none" stroke="#000000" d="M 751 268 L 545 159" stroke-miterlimit="10"/></g><g transform="translate(-190,-78) scale(1,1)"><path fill="#FFFFFF" stroke="none" d="M 566.9029228598699 161.0644539700817 L 545 159 L 559.0279158803277 175.94749468371216"/></g><g transform="translate(-190,-78) scale(1,1)"><path fill="none" stroke="#000000" d="M 566.9029228598699 161.0644539700817 L 545 159 L 559.0279158803277 175.94749468371216 L 566.9029228598699 161.0644539700817" stroke-miterlimit="10"/></g><g transform="translate(-190,-78) scale(1,1)"><rect fill="#C0C0C0" stroke="none" x="207" y="405" width="72" height="50" opacity="0.2"/></g><g transform="translate(-190,-78) scale(1,1)"><rect fill="#ffffff" stroke="none" x="200" y="398" width="72" height="50"/></g><g transform="translate(-190,-78) scale(1,1)"><path fill="none" stroke="#000000" d="M 200 398 L 272 398 L 272 448 L 200 448 L 200 398 Z Z" stroke-miterlimit="10"/></g><g transform="translate(-190,-78) scale(1,1)"><path fill="none" stroke="#000000" d="M 200 423 L 272 423" stroke-miterlimit="10"/></g><g transform="translate(-190,-78) scale(1,1)"><path fill="none" stroke="#000000" d="M 200 433 L 272 433" stroke-miterlimit="10"/></g><g transform="translate(-190,-78) scale(1,1)"><g><path fill="none" stroke="none"/><text fill="#000000" stroke="none" font-family="Arial" font-size="13px" font-style="normal" font-weight="bold" text-decoration="none" x="219.37548828125" y="417.5">Eagle</text></g></g><g transform="translate(-190,-78) scale(1,1)"><path fill="none" stroke="#000000" d="M 238 397 L 242 329" stroke-miterlimit="10"/></g><g transform="translate(-190,-78) scale(1,1)"><path fill="#FFFFFF" stroke="none" d="M 249.21096176636163 349.7846585346998 L 242 329 L 232.40194696933813 348.79589295840435"/></g><g transform="translate(-190,-78) scale(1,1)"><path fill="none" stroke="#000000" d="M 249.21096176636163 349.7846585346998 L 242 329 L 232.40194696933813 348.79589295840435 L 249.21096176636163 349.7846585346998" stroke-miterlimit="10"/></g><g transform="translate(-190,-78) scale(1,1)"><rect fill="#C0C0C0" stroke="none" x="407" y="367" width="96" height="72" opacity="0.2"/></g><g transform="translate(-190,-78) scale(1,1)"><rect fill="#ffffff" stroke="none" x="400" y="360" width="96" height="72"/></g><g transform="translate(-190,-78) scale(1,1)"><path fill="none" stroke="#000000" d="M 400 360 L 496 360 L 496 432 L 400 432 L 400 360 Z Z" stroke-miterlimit="10"/></g><g transform="translate(-190,-78) scale(1,1)"><path fill="none" stroke="#000000" d="M 400 385 L 496 385" stroke-miterlimit="10"/></g><g transform="translate(-190,-78) scale(1,1)"><path fill="none" stroke="#000000" d="M 400 395 L 496 395" stroke-miterlimit="10"/></g><g transform="translate(-190,-78) scale(1,1)"><g><path fill="none" stroke="none"/><text fill="#000000" stroke="none" font-family="Arial" font-size="13px" font-style="normal" font-weight="bold" text-decoration="none" x="429.575927734375" y="379.5">Whale</text></g></g><g transform="translate(-190,-78) scale(1,1)"><path fill="none" stroke="#000000" d="M 474 359 L 495 329" stroke-miterlimit="10"/></g><g transform="translate(-190,-78) scale(1,1)"><path fill="#FFFFFF" stroke="none" d="M 490.2413199337292 350.47917512445196 L 495 329 L 476.44703467084923 340.82317544043605"/></g><g transform="translate(-190,-78) scale(1,1)"><path fill="none" stroke="#000000" d="M 490.2413199337292 350.47917512445196 L 495 329 L 476.44703467084923 340.82317544043605 L 490.2413199337292 350.47917512445196" stroke-miterlimit="10"/></g><g transform="translate(-190,-78) scale(1,1)"><rect fill="#C0C0C0" stroke="none" x="583" y="367" width="64" height="56" opacity="0.2"/></g><g transform="translate(-190,-78) scale(1,1)"><rect fill="#ffffff" stroke="none" x="576" y="360" width="64" height="56"/></g><g transform="translate(-190,-78) scale(1,1)"><path fill="none" stroke="#000000" d="M 576 360 L 640 360 L 640 416 L 576 416 L 576 360 Z Z" stroke-miterlimit="10"/></g><g transform="translate(-190,-78) scale(1,1)"><path fill="none" stroke="#000000" d="M 576 385 L 640 385" stroke-miterlimit="10"/></g><g transform="translate(-190,-78) scale(1,1)"><path fill="none" stroke="#000000" d="M 576 395 L 640 395" stroke-miterlimit="10"/></g><g transform="translate(-190,-78) scale(1,1)"><g><path fill="none" stroke="none"/><text fill="#000000" stroke="none" font-family="Arial" font-size="13px" font-style="normal" font-weight="bold" text-decoration="none" x="596.075927734375" y="379.5">Dog</text></g></g><g transform="translate(-190,-78) scale(1,1)"><path fill="none" stroke="#000000" d="M 581 359 L 553 329" stroke-miterlimit="10"/></g><g transform="translate(-190,-78) scale(1,1)"><path fill="#FFFFFF" stroke="none" d="M 573.0231373202583 338.1144924079225 L 553 329 L 560.7135767910688 349.60341556849943"/></g><g transform="translate(-190,-78) scale(1,1)"><path fill="none" stroke="#000000" d="M 573.0231373202583 338.1144924079225 L 553 329 L 560.7135767910688 349.60341556849943 L 573.0231373202583 338.1144924079225" stroke-miterlimit="10"/></g><g transform="translate(-190,-78) scale(1,1)"><rect fill="#C0C0C0" stroke="none" x="343" y="503" width="75.45361328125" height="44" opacity="0.2"/></g><g transform="translate(-190,-78) scale(1,1)"><rect fill="#ffffff" stroke="none" x="336" y="496" width="75.45361328125" height="44"/></g><g transform="translate(-190,-78) scale(1,1)"><path fill="none" stroke="#000000" d="M 336 496 L 411.45361328125 496 L 411.45361328125 540 L 336 540 L 336 496 Z Z" stroke-miterlimit="10"/></g><g transform="translate(-190,-78) scale(1,1)"><path fill="none" stroke="#000000" d="M 336 521 L 411.45361328125 521" stroke-miterlimit="10"/></g><g transform="translate(-190,-78) scale(1,1)"><path fill="none" stroke="#000000" d="M 336 531 L 411.45361328125 531" stroke-miterlimit="10"/></g><g transform="translate(-190,-78) scale(1,1)"><g><path fill="none" stroke="none"/><text fill="#000000" stroke="none" font-family="Arial" font-size="13px" font-style="normal" font-weight="bold" text-decoration="none" x="342.293212890625" y="515.5">BlueWhale</text></g></g><g transform="translate(-190,-78) scale(1,1)"><path fill="none" stroke="#000000" d="M 387 495 L 425 433" stroke-miterlimit="10"/></g><g transform="translate(-190,-78) scale(1,1)"><path fill="#FFFFFF" stroke="none" d="M 421.55682364631804 454.72888714585827 L 425 433 L 407.20066320301675 445.92995009996395"/></g><g transform="translate(-190,-78) scale(1,1)"><path fill="none" stroke="#000000" d="M 421.55682364631804 454.72888714585827 L 425 433 L 407.20066320301675 445.92995009996395 L 421.55682364631804 454.72888714585827" stroke-miterlimit="10"/></g><g transform="translate(-190,-78) scale(1,1)"><rect fill="#C0C0C0" stroke="none" x="467.919921875" y="503" width="76.91357421875" height="44" opacity="0.2"/></g><g transform="translate(-190,-78) scale(1,1)"><rect fill="#ffffff" stroke="none" x="460.919921875" y="496" width="76.91357421875" height="44"/></g><g transform="translate(-190,-78) scale(1,1)"><path fill="none" stroke="#000000" d="M 460.919921875 496 L 537.83349609375 496 L 537.83349609375 540 L 460.919921875 540 L 460.919921875 496 Z Z" stroke-miterlimit="10"/></g><g transform="translate(-190,-78) scale(1,1)"><path fill="none" stroke="#000000" d="M 460.919921875 521 L 537.83349609375 521" stroke-miterlimit="10"/></g><g transform="translate(-190,-78) scale(1,1)"><path fill="none" stroke="#000000" d="M 460.919921875 531 L 537.83349609375 531" stroke-miterlimit="10"/></g><g transform="translate(-190,-78) scale(1,1)"><g><path fill="none" stroke="none"/><text fill="#000000" stroke="none" font-family="Arial" font-size="13px" font-style="normal" font-weight="bold" text-decoration="none" x="466.8671875" y="515.5">GrayWhale</text></g></g><g transform="translate(-190,-78) scale(1,1)"><path fill="none" stroke="#000000" d="M 489 495 L 463 433" stroke-miterlimit="10"/></g><g transform="translate(-190,-78) scale(1,1)"><path fill="#FFFFFF" stroke="none" d="M 478.6243421886213 448.4880576952976 L 463 433 L 463.0963676893998 454.9997889369066"/></g><g transform="translate(-190,-78) scale(1,1)"><path fill="none" stroke="#000000" d="M 478.6243421886213 448.4880576952976 L 463 433 L 463.0963676893998 454.9997889369066 L 478.6243421886213 448.4880576952976" stroke-miterlimit="10"/></g><g transform="translate(-190,-78) scale(1,1)"><rect fill="#C0C0C0" stroke="none" x="767" y="367" width="88" height="56" opacity="0.2"/></g><g transform="translate(-190,-78) scale(1,1)"><rect fill="#ffffff" stroke="none" x="760" y="360" width="88" height="56"/></g><g transform="translate(-190,-78) scale(1,1)"><path fill="none" stroke="#000000" d="M 760 360 L 848 360 L 848 416 L 760 416 L 760 360 Z Z" stroke-miterlimit="10"/></g><g transform="translate(-190,-78) scale(1,1)"><path fill="none" stroke="#000000" d="M 760 385 L 848 385" stroke-miterlimit="10"/></g><g transform="translate(-190,-78) scale(1,1)"><path fill="none" stroke="#000000" d="M 760 395 L 848 395" stroke-miterlimit="10"/></g><g transform="translate(-190,-78) scale(1,1)"><g><path fill="none" stroke="none"/><text fill="#000000" stroke="none" font-family="Arial" font-size="13px" font-style="normal" font-weight="bold" text-decoration="none" x="787.02001953125" y="379.5">Shark</text></g></g><g transform="translate(-190,-78) scale(1,1)"><path fill="none" stroke="#000000" d="M 802 359 L 799 329" stroke-miterlimit="10"/></g><g transform="translate(-190,-78) scale(1,1)"><path fill="#FFFFFF" stroke="none" d="M 809.39970132724 348.38675352667906 L 799 329 L 792.6451944468992 350.0622042147131"/></g><g transform="translate(-190,-78) scale(1,1)"><path fill="none" stroke="#000000" d="M 809.39970132724 348.38675352667906 L 799 329 L 792.6451944468992 350.0622042147131 L 809.39970132724 348.38675352667906" stroke-miterlimit="10"/></g></g></svg>