<svg version="1.1" xmlns="http://www.w3.org/2000/svg" xmlns:xlink="http://www.w3.org/1999/xlink" width="1143.26318359375" height="787"><defs/><g><g transform="translate(-6,-46) scale(1,1)"><rect fill="#C0C0C0" stroke="none" x="471" y="63" width="272.3896484375" height="220" opacity="0.2"/></g><g transform="translate(-6,-46) scale(1,1)"><rect fill="#ffffff" stroke="none" x="464" y="56" width="272.3896484375" height="220"/></g><g transform="translate(-6,-46) scale(1,1)"><path fill="none" stroke="#000000" d="M 464 56 L 736.3896484375 56 L 736.3896484375 276 L 464 276 L 464 56 Z Z" stroke-miterlimit="10"/></g><g transform="translate(-6,-46) scale(1,1)"><path fill="none" stroke="#000000" d="M 464 81 L 736.3896484375 81" stroke-miterlimit="10"/></g><g transform="translate(-6,-46) scale(1,1)"><path fill="none" stroke="#000000" d="M 464 149 L 736.3896484375 149" stroke-miterlimit="10"/></g><g transform="translate(-6,-46) scale(1,1)"><g><path fill="none" stroke="none"/><text fill="#000000" stroke="none" font-family="Arial" font-size="13px" font-style="normal" font-weight="bold" text-decoration="none" x="572.020751953125" y="75.5">Customer</text></g></g><g transform="translate(-6,-46) scale(1,1)"><g><path fill="none" stroke="none"/><text fill="#000000" stroke="none" font-family="Arial" font-size="13px" font-style="normal" font-weight="normal" text-decoration="none" x="469" y="98.5">-ID: String</text></g></g><g transform="translate(-6,-46) scale(1,1)"><g><path fill="none" stroke="none"/><text fill="#000000" stroke="none" font-family="Arial" font-size="13px" font-style="normal" font-weight="normal" text-decoration="none" x="469" y="113.5">-name: String</text></g></g><g transform="translate(-6,-46) scale(1,1)"><g><path fill="none" stroke="none"/><text fill="#000000" stroke="none" font-family="Arial" font-size="13px" font-style="normal" font-weight="normal" text-decoration="none" x="469" y="128.5">-homePhoneCalt: String</text></g></g><g transform="translate(-6,-46) scale(1,1)"><g><path fill="none" stroke="none"/><text fill="#000000" stroke="none" font-family="Arial" font-size="13px" font-style="normal" font-weight="normal" text-decoration="none" x="469" y="143.5">-email: String</text></g></g><g transform="translate(-6,-46) scale(1,1)"><g><path fill="none" stroke="none"/><text fill="#000000" stroke="none" font-family="Arial" font-size="13px" font-style="normal" font-weight="normal" text-decoration="none" x="469" y="166.5">+getID(): String</text></g></g><g transform="translate(-6,-46) scale(1,1)"><g><path fill="none" stroke="none"/><text fill="#000000" stroke="none" font-family="Arial" font-size="13px" font-style="normal" font-weight="normal" text-decoration="none" x="469" y="181.5">+setID(ID: String)</text></g></g><g transform="translate(-6,-46) scale(1,1)"><g><path fill="none" stroke="none"/><text fill="#000000" stroke="none" font-family="Arial" font-size="13px" font-style="normal" font-weight="normal" text-decoration="none" x="469" y="196.5">+getName(): String</text></g></g><g transform="translate(-6,-46) scale(1,1)"><g><path fill="none" stroke="none"/><text fill="#000000" stroke="none" font-family="Arial" font-size="13px" font-style="normal" font-weight="normal" text-decoration="none" x="469" y="211.5">+setName(name: String)</text></g></g><g transform="translate(-6,-46) scale(1,1)"><g><path fill="none" stroke="none"/><text fill="#000000" stroke="none" font-family="Arial" font-size="13px" font-style="normal" font-weight="normal" text-decoration="none" x="469" y="226.5">+getHomePhoneCalt(): String</text></g></g><g transform="translate(-6,-46) scale(1,1)"><g><path fill="none" stroke="none"/><text fill="#000000" stroke="none" font-family="Arial" font-size="13px" font-style="normal" font-weight="normal" text-decoration="none" x="469" y="241.5">+setHomePhoneCalt(homePhoneCalt: String)</text></g></g><g transform="translate(-6,-46) scale(1,1)"><g><path fill="none" stroke="none"/><text fill="#000000" stroke="none" font-family="Arial" font-size="13px" font-style="normal" font-weight="normal" text-decoration="none" x="469" y="256.5">+getEmail(): String</text></g></g><g transform="translate(-6,-46) scale(1,1)"><g><path fill="none" stroke="none"/><text fill="#000000" stroke="none" font-family="Arial" font-size="13px" font-style="normal" font-weight="normal" text-decoration="none" x="469" y="271.5">+setEmail(email: String)</text></g></g><g transform="translate(-6,-46) scale(1,1)"><rect fill="#C0C0C0" stroke="none" x="127" y="255" width="309.2060546875" height="145" opacity="0.2"/></g><g transform="translate(-6,-46) scale(1,1)"><rect fill="#ffffff" stroke="none" x="120" y="248" width="309.2060546875" height="145"/></g><g transform="translate(-6,-46) scale(1,1)"><path fill="none" stroke="#000000" d="M 120 248 L 429.2060546875 248 L 429.2060546875 393 L 120 393 L 120 248 Z Z" stroke-miterlimit="10"/></g><g transform="translate(-6,-46) scale(1,1)"><path fill="none" stroke="#000000" d="M 120 273 L 429.2060546875 273" stroke-miterlimit="10"/></g><g transform="translate(-6,-46) scale(1,1)"><path fill="none" stroke="#000000" d="M 120 311 L 429.2060546875 311" stroke-miterlimit="10"/></g><g transform="translate(-6,-46) scale(1,1)"><g><path fill="none" stroke="none"/><text fill="#000000" stroke="none" font-family="Arial" font-size="13px" font-style="normal" font-weight="bold" text-decoration="none" x="213.548095703125" y="267.5">InstitutionalCustomer</text></g></g><g transform="translate(-6,-46) scale(1,1)"><g><path fill="none" stroke="none"/><text fill="#000000" stroke="none" font-family="Arial" font-size="13px" font-style="normal" font-weight="normal" text-decoration="none" x="125" y="290.5">-workPhoneNumber String</text></g></g><g transform="translate(-6,-46) scale(1,1)"><g><path fill="none" stroke="none"/><text fill="#000000" stroke="none" font-family="Arial" font-size="13px" font-style="normal" font-weight="normal" text-decoration="none" x="125" y="305.5">-jobPosition: String</text></g></g><g transform="translate(-6,-46) scale(1,1)"><g><path fill="none" stroke="none"/><text fill="#000000" stroke="none" font-family="Arial" font-size="13px" font-style="normal" font-weight="normal" text-decoration="none" x="125" y="328.5">+getWorkPhoneNumber(): String</text></g></g><g transform="translate(-6,-46) scale(1,1)"><g><path fill="none" stroke="none"/><text fill="#000000" stroke="none" font-family="Arial" font-size="13px" font-style="normal" font-weight="normal" text-decoration="none" x="125" y="343.5">+setWorkPhoneNumber(workPhoneNumber: String)</text></g></g><g transform="translate(-6,-46) scale(1,1)"><g><path fill="none" stroke="none"/><text fill="#000000" stroke="none" font-family="Arial" font-size="13px" font-style="normal" font-weight="normal" text-decoration="none" x="125" y="358.5">+getJobPosition(): String</text></g></g><g transform="translate(-6,-46) scale(1,1)"><g><path fill="none" stroke="none"/><text fill="#000000" stroke="none" font-family="Arial" font-size="13px" font-style="normal" font-weight="normal" text-decoration="none" x="125" y="373.5">+setJobPosition(jobPosition: String)</text></g></g><g transform="translate(-6,-46) scale(1,1)"><g><path fill="none" stroke="none"/><text fill="#000000" stroke="none" font-family="Arial" font-size="13px" font-style="normal" font-weight="normal" text-decoration="none" x="125" y="388.5">+addContact(contactName: String): String</text></g></g><g transform="translate(-6,-46) scale(1,1)"><path fill="none" stroke="#000000" d="M 429 247 L 463 231" stroke-miterlimit="10"/></g><g transform="translate(-6,-46) scale(1,1)"><path fill="#FFFFFF" stroke="none" d="M 448.1940438186469 247.27217445690195 L 463 231 L 441.0244430790884 232.03677288534024"/></g><g transform="translate(-6,-46) scale(1,1)"><path fill="none" stroke="#000000" d="M 448.1940438186469 247.27217445690195 L 463 231 L 441.0244430790884 232.03677288534024 L 448.1940438186469 247.27217445690195" stroke-miterlimit="10"/></g><g transform="translate(-6,-46) scale(1,1)"><rect fill="#C0C0C0" stroke="none" x="855" y="311" width="133.9599609375" height="72" opacity="0.2"/></g><g transform="translate(-6,-46) scale(1,1)"><rect fill="#ffffff" stroke="none" x="848" y="304" width="133.9599609375" height="72"/></g><g transform="translate(-6,-46) scale(1,1)"><path fill="none" stroke="#000000" d="M 848 304 L 981.9599609375 304 L 981.9599609375 376 L 848 376 L 848 304 Z Z" stroke-miterlimit="10"/></g><g transform="translate(-6,-46) scale(1,1)"><path fill="none" stroke="#000000" d="M 848 329 L 981.9599609375 329" stroke-miterlimit="10"/></g><g transform="translate(-6,-46) scale(1,1)"><path fill="none" stroke="#000000" d="M 848 339 L 981.9599609375 339" stroke-miterlimit="10"/></g><g transform="translate(-6,-46) scale(1,1)"><g><path fill="none" stroke="none"/><text fill="#000000" stroke="none" font-family="Arial" font-size="13px" font-style="normal" font-weight="bold" text-decoration="none" x="857.898681640625" y="323.5">IndiviidualCustomer</text></g></g><g transform="translate(-6,-46) scale(1,1)"><g><path fill="none" stroke="none"/><text fill="#000000" stroke="none" font-family="Arial" font-size="13px" font-style="normal" font-weight="normal" text-decoration="none" x="853" y="356.5">+getId(): String</text></g></g><g transform="translate(-6,-46) scale(1,1)"><g><path fill="none" stroke="none"/><text fill="#000000" stroke="none" font-family="Arial" font-size="13px" font-style="normal" font-weight="normal" text-decoration="none" x="853" y="371.5">+getName(): String</text></g></g><g transform="translate(-6,-46) scale(1,1)"><path fill="none" stroke="#000000" d="M 847 303 L 737 242" stroke-miterlimit="10"/></g><g transform="translate(-6,-46) scale(1,1)"><path fill="#FFFFFF" stroke="none" d="M 758.8581301388979 244.49442314594035 L 737 242 L 750.6922085236297 259.21985556691584"/></g><g transform="translate(-6,-46) scale(1,1)"><path fill="none" stroke="#000000" d="M 758.8581301388979 244.49442314594035 L 737 242 L 750.6922085236297 259.21985556691584 L 758.8581301388979 244.49442314594035" stroke-miterlimit="10"/></g><g transform="translate(-6,-46) scale(1,1)"><rect fill="#C0C0C0" stroke="none" x="359" y="479" width="350.40869140625" height="151" opacity="0.2"/></g><g transform="translate(-6,-46) scale(1,1)"><rect fill="#ffffff" stroke="none" x="352" y="472" width="350.40869140625" height="151"/></g><g transform="translate(-6,-46) scale(1,1)"><path fill="none" stroke="#000000" d="M 352 472 L 702.40869140625 472 L 702.40869140625 623 L 352 623 L 352 472 Z Z" stroke-miterlimit="10"/></g><g transform="translate(-6,-46) scale(1,1)"><path fill="none" stroke="#000000" d="M 352 497 L 702.40869140625 497" stroke-miterlimit="10"/></g><g transform="translate(-6,-46) scale(1,1)"><path fill="none" stroke="#000000" d="M 352 507 L 702.40869140625 507" stroke-miterlimit="10"/></g><g transform="translate(-6,-46) scale(1,1)"><g><path fill="none" stroke="none"/><text fill="#000000" stroke="none" font-family="Arial" font-size="13px" font-style="normal" font-weight="bold" text-decoration="none" x="438.324462890625" y="491.5">InstitutionalCustomerDatabase</text></g></g><g transform="translate(-6,-46) scale(1,1)"><g><path fill="none" stroke="none"/><text fill="#000000" stroke="none" font-family="Arial" font-size="13px" font-style="normal" font-weight="normal" text-decoration="none" x="357" y="524.5">+getInstitutionalCustomer(Id: String): InstitutionalCustomer</text></g></g><g transform="translate(-6,-46) scale(1,1)"><g><path fill="none" stroke="none"/><text fill="#000000" stroke="none" font-family="Arial" font-size="13px" font-style="normal" font-weight="normal" text-decoration="none" x="357" y="539.5">+addInstitutionalCustomer(Id: String): InstitutionalCustomer</text></g></g><g transform="translate(-6,-46) scale(1,1)"><g><path fill="none" stroke="none"/><text fill="#000000" stroke="none" font-family="Arial" font-size="13px" font-style="normal" font-weight="normal" text-decoration="none" x="357" y="554.5">+removeInstitutionalCustomer(Id: String)</text></g></g><g transform="translate(-6,-46) scale(1,1)"><path fill="none" stroke="#000000" d="M 442 471 L 356 394" stroke-miterlimit="10"/></g><g transform="translate(-6,-46) scale(1,1)"><path fill="none" stroke="#000000" d="M 366.37929276153864 397.64283979475783 L 356 394 L 360.76339157395495 403.9151450172539" stroke-miterlimit="10"/></g><g transform="translate(-6,-46) scale(1,1)"><g><path fill="none" stroke="none"/><text fill="#000000" stroke="none" font-family="Arial" font-size="13px" font-style="normal" font-weight="normal" text-decoration="none" x="430.5" y="453.5">1</text></g></g><g transform="translate(-6,-46) scale(1,1)"><g><path fill="none" stroke="none"/><text fill="#000000" stroke="none" font-family="Arial" font-size="13px" font-style="normal" font-weight="normal" text-decoration="none" x="302.13134765625" y="428.5">-institutionalCustomer</text></g></g><g transform="translate(-6,-46) scale(1,1)"><g><path fill="none" stroke="none"/><text fill="#000000" stroke="none" font-family="Arial" font-size="13px" font-style="normal" font-weight="normal" text-decoration="none" x="376.5" y="405.5">1</text></g></g><g transform="translate(-6,-46) scale(1,1)"><rect fill="#C0C0C0" stroke="none" x="759" y="479" width="387.26318359375" height="143" opacity="0.2"/></g><g transform="translate(-6,-46) scale(1,1)"><rect fill="#ffffff" stroke="none" x="752" y="472" width="387.26318359375" height="143"/></g><g transform="translate(-6,-46) scale(1,1)"><path fill="none" stroke="#000000" d="M 752 472 L 1139.26318359375 472 L 1139.26318359375 615 L 752 615 L 752 472 Z Z" stroke-miterlimit="10"/></g><g transform="translate(-6,-46) scale(1,1)"><path fill="none" stroke="#000000" d="M 752 497 L 1139.26318359375 497" stroke-miterlimit="10"/></g><g transform="translate(-6,-46) scale(1,1)"><path fill="none" stroke="#000000" d="M 752 507 L 1139.26318359375 507" stroke-miterlimit="10"/></g><g transform="translate(-6,-46) scale(1,1)"><g><path fill="none" stroke="none"/><text fill="#000000" stroke="none" font-family="Arial" font-size="13px" font-style="normal" font-weight="bold" text-decoration="none" x="862.16943359375" y="491.5">IndividualCustomerDatabase</text></g></g><g transform="translate(-6,-46) scale(1,1)"><g><path fill="none" stroke="none"/><text fill="#000000" stroke="none" font-family="Arial" font-size="13px" font-style="normal" font-weight="normal" text-decoration="none" x="757" y="524.5">+getIndividualCustomer(Id: String): IndividualCustomer</text></g></g><g transform="translate(-6,-46) scale(1,1)"><g><path fill="none" stroke="none"/><text fill="#000000" stroke="none" font-family="Arial" font-size="13px" font-style="normal" font-weight="normal" text-decoration="none" x="757" y="539.5">+addIndividualCustomer(individualCustomer: IndividualCustomer)</text></g></g><g transform="translate(-6,-46) scale(1,1)"><g><path fill="none" stroke="none"/><text fill="#000000" stroke="none" font-family="Arial" font-size="13px" font-style="normal" font-weight="normal" text-decoration="none" x="757" y="554.5">+removeIndividualCustomer(Id: String)</text></g></g><g transform="translate(-6,-46) scale(1,1)"><path fill="none" stroke="#000000" d="M 934 471 L 920 377" stroke-miterlimit="10"/></g><g transform="translate(-6,-46) scale(1,1)"><path fill="none" stroke="#000000" d="M 925.6606695422387 386.43169233666845 L 920 377 L 917.3334842100497 387.6719114286966" stroke-miterlimit="10"/></g><g transform="translate(-6,-46) scale(1,1)"><g><path fill="none" stroke="none"/><text fill="#000000" stroke="none" font-family="Arial" font-size="13px" font-style="normal" font-weight="normal" text-decoration="none" x="854.13134765625" y="432.5">-individualCustomer</text></g></g><g transform="translate(-6,-46) scale(1,1)"><g><path fill="none" stroke="none"/><text fill="#000000" stroke="none" font-family="Arial" font-size="13px" font-style="normal" font-weight="normal" text-decoration="none" x="939.5" y="453.5">1</text></g></g><g transform="translate(-6,-46) scale(1,1)"><g><path fill="none" stroke="none"/><text fill="#000000" stroke="none" font-family="Arial" font-size="13px" font-style="normal" font-weight="normal" text-decoration="none" x="931.5" y="402.5">1</text></g></g><g transform="translate(-6,-46) scale(1,1)"><rect fill="#C0C0C0" stroke="none" x="591" y="695" width="327" height="135" opacity="0.2"/></g><g transform="translate(-6,-46) scale(1,1)"><rect fill="#ffffff" stroke="none" x="584" y="688" width="327" height="135"/></g><g transform="translate(-6,-46) scale(1,1)"><path fill="none" stroke="#000000" d="M 584 688 L 911 688 L 911 823 L 584 823 L 584 688 Z Z" stroke-miterlimit="10"/></g><g transform="translate(-6,-46) scale(1,1)"><path fill="none" stroke="#000000" d="M 584 713 L 911 713" stroke-miterlimit="10"/></g><g transform="translate(-6,-46) scale(1,1)"><path fill="none" stroke="#000000" d="M 584 723 L 911 723" stroke-miterlimit="10"/></g><g transform="translate(-6,-46) scale(1,1)"><g><path fill="none" stroke="none"/><text fill="#000000" stroke="none" font-family="Arial" font-size="13px" font-style="normal" font-weight="bold" text-decoration="none" x="665.13916015625" y="707.5">CustomerInformationSystem</text></g></g><g transform="translate(-6,-46) scale(1,1)"><g><path fill="none" stroke="none"/><text fill="#000000" stroke="none" font-family="Arial" font-size="13px" font-style="normal" font-weight="normal" text-decoration="none" x="589" y="740.5">+displayIndividualCustomerDataBase()</text></g></g><g transform="translate(-6,-46) scale(1,1)"><g><path fill="none" stroke="none"/><text fill="#000000" stroke="none" font-family="Arial" font-size="13px" font-style="normal" font-weight="normal" text-decoration="none" x="589" y="755.5">+displayIndividualCustomerDatabase()</text></g></g><g transform="translate(-6,-46) scale(1,1)"><g><path fill="none" stroke="none"/><text fill="#000000" stroke="none" font-family="Arial" font-size="13px" font-style="normal" font-weight="normal" text-decoration="none" x="589" y="770.5">+displayIndividualCustomer()</text></g></g><g transform="translate(-6,-46) scale(1,1)"><g><path fill="none" stroke="none"/><text fill="#000000" stroke="none" font-family="Arial" font-size="13px" font-style="normal" font-weight="normal" text-decoration="none" x="589" y="785.5">+displayInsitutionalCustomer()</text></g></g><g transform="translate(-6,-46) scale(1,1)"><g><path fill="none" stroke="none"/><text fill="#000000" stroke="none" font-family="Arial" font-size="13px" font-style="normal" font-weight="normal" text-decoration="none" x="589" y="800.5">+dispalyContact()</text></g></g><g transform="translate(-6,-46) scale(1,1)"><g><path fill="none" stroke="none"/><text fill="#000000" stroke="none" font-family="Arial" font-size="13px" font-style="normal" font-weight="normal" text-decoration="none" x="589" y="815.5">+dispalyCOntactItem()</text></g></g><g transform="translate(-6,-46) scale(1,1)"><path fill="none" stroke="#000000" d="M 675 687 L 608 624" stroke-miterlimit="10"/></g><g transform="translate(-6,-46) scale(1,1)"><path fill="none" stroke="#000000" d="M 618.2873298909823 627.8949767283133 L 608 624 L 612.5200762690625 634.0284051833708" stroke-miterlimit="10"/></g><g transform="translate(-6,-46) scale(1,1)"><g><path fill="none" stroke="none"/><text fill="#000000" stroke="none" font-family="Arial" font-size="13px" font-style="normal" font-weight="normal" text-decoration="none" x="663.5" y="669.5">1</text></g></g><g transform="translate(-6,-46) scale(1,1)"><g><path fill="none" stroke="none"/><text fill="#000000" stroke="none" font-family="Arial" font-size="13px" font-style="normal" font-weight="normal" text-decoration="none" x="524.13134765625" y="658.5">-institutionalCustomerDataBase</text></g></g><g transform="translate(-6,-46) scale(1,1)"><g><path fill="none" stroke="none"/><text fill="#000000" stroke="none" font-family="Arial" font-size="13px" font-style="normal" font-weight="normal" text-decoration="none" x="628.5" y="635.5">1</text></g></g><g transform="translate(-6,-46) scale(1,1)"><path fill="none" stroke="#000000" d="M 811 687 L 877 616" stroke-miterlimit="10"/></g><g transform="translate(-6,-46) scale(1,1)"><path fill="none" stroke="#000000" d="M 873.1639367227334 626.3094431727812 L 877 616 L 866.9976164658531 620.5773708213151" stroke-miterlimit="10"/></g><g transform="translate(-6,-46) scale(1,1)"><g><path fill="none" stroke="none"/><text fill="#000000" stroke="none" font-family="Arial" font-size="13px" font-style="normal" font-weight="normal" text-decoration="none" x="747.13134765625" y="646.5">-individualCustomerDataBase</text></g></g><g transform="translate(-6,-46) scale(1,1)"><g><path fill="none" stroke="none"/><text fill="#000000" stroke="none" font-family="Arial" font-size="13px" font-style="normal" font-weight="normal" text-decoration="none" x="830.5" y="685.5">1</text></g></g><g transform="translate(-6,-46) scale(1,1)"><g><path fill="none" stroke="none"/><text fill="#000000" stroke="none" font-family="Arial" font-size="13px" font-style="normal" font-weight="normal" text-decoration="none" x="867.5" y="646.5">1</text></g></g><g transform="translate(-6,-46) scale(1,1)"><rect fill="#C0C0C0" stroke="none" x="199" y="687" width="315.7060546875" height="135" opacity="0.2"/></g><g transform="translate(-6,-46) scale(1,1)"><rect fill="#ffffff" stroke="none" x="192" y="680" width="315.7060546875" height="135"/></g><g transform="translate(-6,-46) scale(1,1)"><path fill="none" stroke="#000000" d="M 192 680 L 507.7060546875 680 L 507.7060546875 815 L 192 815 L 192 680 Z Z" stroke-miterlimit="10"/></g><g transform="translate(-6,-46) scale(1,1)"><path fill="none" stroke="#000000" d="M 192 705 L 507.7060546875 705" stroke-miterlimit="10"/></g><g transform="translate(-6,-46) scale(1,1)"><path fill="none" stroke="#000000" d="M 192 715 L 507.7060546875 715" stroke-miterlimit="10"/></g><g transform="translate(-6,-46) scale(1,1)"><g><path fill="none" stroke="none"/><text fill="#000000" stroke="none" font-family="Arial" font-size="13px" font-style="normal" font-weight="bold" text-decoration="none" x="327.4521484375" y="699.5">Contact</text></g></g><g transform="translate(-6,-46) scale(1,1)"><g><path fill="none" stroke="none"/><text fill="#000000" stroke="none" font-family="Arial" font-size="13px" font-style="normal" font-weight="normal" text-decoration="none" x="197" y="732.5">+getContactItem(Id: String, name: String)</text></g></g><g transform="translate(-6,-46) scale(1,1)"><g><path fill="none" stroke="none"/><text fill="#000000" stroke="none" font-family="Arial" font-size="13px" font-style="normal" font-weight="normal" text-decoration="none" x="197" y="747.5">+addContactItem(Id: String)</text></g></g><g transform="translate(-6,-46) scale(1,1)"><g><path fill="none" stroke="none"/><text fill="#000000" stroke="none" font-family="Arial" font-size="13px" font-style="normal" font-weight="normal" text-decoration="none" x="197" y="762.5">+removeContactItem(Id: String, contactName: String)</text></g></g><g transform="translate(-6,-46) scale(1,1)"><rect fill="#C0C0C0" stroke="none" x="23" y="471" width="279" height="151" opacity="0.2"/></g><g transform="translate(-6,-46) scale(1,1)"><rect fill="#ffffff" stroke="none" x="16" y="464" width="279" height="151"/></g><g transform="translate(-6,-46) scale(1,1)"><path fill="none" stroke="#000000" d="M 16 464 L 295 464 L 295 615 L 16 615 L 16 464 Z Z" stroke-miterlimit="10"/></g><g transform="translate(-6,-46) scale(1,1)"><path fill="none" stroke="#000000" d="M 16 489 L 295 489" stroke-miterlimit="10"/></g><g transform="translate(-6,-46) scale(1,1)"><path fill="none" stroke="#000000" d="M 16 512 L 295 512" stroke-miterlimit="10"/></g><g transform="translate(-6,-46) scale(1,1)"><g><path fill="none" stroke="none"/><text fill="#000000" stroke="none" font-family="Arial" font-size="13px" font-style="normal" font-weight="bold" text-decoration="none" x="120.457763671875" y="483.5">ContactItem</text></g></g><g transform="translate(-6,-46) scale(1,1)"><g><path fill="none" stroke="none"/><text fill="#000000" stroke="none" font-family="Arial" font-size="13px" font-style="normal" font-weight="normal" text-decoration="none" x="21" y="506.5">-contactName: String</text></g></g><g transform="translate(-6,-46) scale(1,1)"><g><path fill="none" stroke="none"/><text fill="#000000" stroke="none" font-family="Arial" font-size="13px" font-style="normal" font-weight="normal" text-decoration="none" x="21" y="529.5">+getContactName(): String</text></g></g><g transform="translate(-6,-46) scale(1,1)"><g><path fill="none" stroke="none"/><text fill="#000000" stroke="none" font-family="Arial" font-size="13px" font-style="normal" font-weight="normal" text-decoration="none" x="21" y="544.5">+setContactName(contactName: String)</text></g></g><g transform="translate(-6,-46) scale(1,1)"><path fill="none" stroke="#000000" d="M 286 679 L 227 616" stroke-miterlimit="10"/></g><g transform="translate(-6,-46) scale(1,1)"><path fill="none" stroke="#000000" d="M 237.01927406966203 620.5402805108273 L 227 616 L 230.87423349952948 626.2951597749196" stroke-miterlimit="10"/></g><g transform="translate(-6,-46) scale(1,1)"><g><path fill="none" stroke="none"/><text fill="#000000" stroke="none" font-family="Arial" font-size="13px" font-style="normal" font-weight="normal" text-decoration="none" x="209.13134765625" y="663.5">-contactItem</text></g></g><g transform="translate(-6,-46) scale(1,1)"><g><path fill="none" stroke="none"/><text fill="#000000" stroke="none" font-family="Arial" font-size="13px" font-style="normal" font-weight="normal" text-decoration="none" x="279.5" y="675.5">1</text></g></g><g transform="translate(-6,-46) scale(1,1)"><g><path fill="none" stroke="none"/><text fill="#000000" stroke="none" font-family="Arial" font-size="13px" font-style="normal" font-weight="normal" text-decoration="none" x="247.5" y="629.5">*</text></g></g><g transform="translate(-6,-46) scale(1,1)"><path fill="none" stroke="#000000" d="M 234 394 L 196 463" stroke-miterlimit="10"/></g><g transform="translate(-6,-46) scale(1,1)"><path fill="none" stroke="#000000" d="M 197.2152177839819 452.06733126187873 L 196 463 L 204.58985293686382 456.12872453448034" stroke-miterlimit="10"/></g><g transform="translate(-6,-46) scale(1,1)"><g><path fill="none" stroke="none"/><text fill="#000000" stroke="none" font-family="Arial" font-size="13px" font-style="normal" font-weight="normal" text-decoration="none" x="187.13134765625" y="430.5">-contactItem</text></g></g><g transform="translate(-6,-46) scale(1,1)"><g><path fill="none" stroke="none"/><text fill="#000000" stroke="none" font-family="Arial" font-size="13px" font-style="normal" font-weight="normal" text-decoration="none" x="208.5" y="412.5">1</text></g></g><g transform="translate(-6,-46) scale(1,1)"><g><path fill="none" stroke="none"/><text fill="#000000" stroke="none" font-family="Arial" font-size="13px" font-style="normal" font-weight="normal" text-decoration="none" x="183.5" y="451.5">*</text></g></g></g></svg>